<?xml version="1.0" standalone="no"?>
<!DOCTYPE svg PUBLIC "-//W3C//DTD SVG 20010904//EN"
 "http://www.w3.org/TR/2001/REC-SVG-20010904/DTD/svg10.dtd">
<svg version="1.0" xmlns="http://www.w3.org/2000/svg"
 width="600.000000pt" height="600.000000pt" viewBox="0 0 600.000000 600.000000"
 preserveAspectRatio="xMidYMid meet">
<metadata>
Created by potrace 1.11, written by Peter Selinger 2001-2013
</metadata>
<g transform="translate(0.000000,600.000000) scale(0.100000,-0.100000)"
fill="#000000" stroke="none">
<path d="M3328 4700 c-277 -44 -471 -176 -569 -385 -50 -107 -61 -166 -66
-357 l-5 -178 -192 0 c-139 0 -204 4 -239 15 -117 35 -267 50 -512 49 -200 0
-259 -4 -355 -22 -480 -88 -747 -337 -795 -739 l-6 -53 340 0 339 0 7 43 c19
112 83 212 168 261 77 45 157 59 312 54 110 -4 151 -9 193 -26 118 -46 172
-122 180 -253 5 -91 -7 -134 -50 -178 -75 -77 -178 -105 -538 -151 -286 -37
-419 -61 -527 -96 -266 -87 -430 -254 -477 -486 -20 -98 -20 -275 -1 -370 31
-148 119 -292 229 -374 152 -115 306 -163 546 -171 314 -10 577 64 777 221 78
61 75 62 88 -19 3 -22 13 -64 21 -92 l15 -53 574 0 575 0 0 166 0 167 43 -53
c54 -66 177 -160 270 -204 212 -102 446 -143 757 -133 486 15 821 178 964 471
52 107 67 174 73 331 9 226 -27 327 -161 460 -141 140 -295 203 -736 300 -403
88 -513 129 -584 218 -28 35 -31 45 -31 111 0 64 3 77 28 109 56 74 161 107
335 107 216 0 345 -58 408 -183 14 -27 28 -71 31 -98 l6 -49 324 0 325 0 -7
53 c-14 98 -45 202 -87 287 -56 115 -185 245 -304 307 -193 101 -369 137 -679
138 -223 0 -366 -15 -483 -51 -35 -10 -107 -14 -271 -14 l-224 0 7 118 c3 64
11 134 17 155 13 50 71 112 117 129 38 13 289 16 339 4 l23 -6 0 253 0 254
-52 7 c-91 11 -420 15 -480 6z m273 -2144 c120 -61 261 -104 531 -166 349 -79
473 -119 571 -187 119 -82 122 -253 5 -358 -77 -70 -192 -105 -345 -105 -151
0 -257 29 -356 97 -75 52 -147 186 -147 274 l0 29 -250 0 -250 0 0 301 0 301
76 -71 c53 -49 103 -84 165 -115z m-1486 -441 c-43 -194 -163 -317 -352 -361
-99 -23 -307 -15 -384 14 -123 48 -182 136 -182 272 0 162 83 260 268 319 50
16 170 41 270 56 209 30 283 47 345 79 l45 23 3 -166 c2 -122 -1 -184 -13
-236z"/>
</g>
</svg>
