<?xml version="1.0" standalone="no"?><!-- Generator: Gravit.io --><svg xmlns="http://www.w3.org/2000/svg" xmlns:xlink="http://www.w3.org/1999/xlink" style="isolation:isolate" viewBox="0 0 256 256" width="256" height="256"><defs><clipPath id="_clipPath_r7b1wnv09333FXtXqFz29mQ8aoa9gwM1"><rect width="256" height="256"/></clipPath></defs><g clip-path="url(#_clipPath_r7b1wnv09333FXtXqFz29mQ8aoa9gwM1)"><rect width="256" height="256" style="fill:rgb(5,5,5)"/><path d=" M 25.32 137.648 L 25.32 137.648 Q 30.036 137.648 32.61 139.88 L 32.61 139.88 L 32.61 139.88 Q 35.184 142.112 35.184 146.144 L 35.184 146.144 L 35.184 146.144 Q 35.184 150.356 32.592 152.678 L 32.592 152.678 L 32.592 152.678 Q 30 155 25.32 155 L 25.32 155 L 19.056 155 L 19.056 162.848 L 15.6 162.848 L 15.6 137.648 L 25.32 137.648 Z  M 25.176 151.868 L 25.176 151.868 Q 28.416 151.868 30.144 150.446 L 30.144 150.446 L 30.144 150.446 Q 31.872 149.024 31.872 146.252 L 31.872 146.252 L 31.872 146.252 Q 31.872 143.552 30.144 142.166 L 30.144 142.166 L 30.144 142.166 Q 28.416 140.78 25.176 140.78 L 25.176 140.78 L 19.056 140.816 L 19.056 151.868 L 25.176 151.868 Z  M 63.988 162.848 L 60.028 162.848 L 55.024 154.928 L 55.024 154.928 Q 54.16 155 53.62 155 L 53.62 155 L 47.212 155 L 47.212 162.848 L 43.756 162.848 L 43.756 137.648 L 53.62 137.648 L 53.62 137.648 Q 58.408 137.648 61.018 139.862 L 61.018 139.862 L 61.018 139.862 Q 63.628 142.076 63.628 146.144 L 63.628 146.144 L 63.628 146.144 Q 63.628 149.204 62.206 151.292 L 62.206 151.292 L 62.206 151.292 Q 60.784 153.38 58.12 154.316 L 58.12 154.316 L 63.988 162.848 Z  M 47.212 151.868 L 53.62 151.868 L 53.62 151.868 Q 56.86 151.868 58.588 150.446 L 58.588 150.446 L 58.588 150.446 Q 60.316 149.024 60.316 146.252 L 60.316 146.252 L 60.316 146.252 Q 60.316 143.552 58.588 142.166 L 58.588 142.166 L 58.588 142.166 Q 56.86 140.78 53.62 140.78 L 53.62 140.78 L 47.212 140.78 L 47.212 151.868 Z  M 96.248 162.848 L 92.504 162.848 L 89.84 156.728 L 76.556 156.728 L 73.928 162.848 L 70.292 162.848 L 81.488 137.648 L 85.088 137.648 L 96.248 162.848 Z  M 83.18 141.356 L 77.924 153.596 L 88.508 153.596 L 83.18 141.356 Z  M 114.18 137.648 L 114.18 137.648 Q 117.852 137.648 120.822 139.286 L 120.822 139.286 L 120.822 139.286 Q 123.792 140.924 125.484 143.804 L 125.484 143.804 L 125.484 143.804 Q 127.176 146.684 127.176 150.248 L 127.176 150.248 L 127.176 150.248 Q 127.176 153.812 125.466 156.692 L 125.466 156.692 L 125.466 156.692 Q 123.756 159.572 120.768 161.21 L 120.768 161.21 L 120.768 161.21 Q 117.78 162.848 114.072 162.848 L 114.072 162.848 L 103.92 162.848 L 103.92 137.648 L 114.18 137.648 Z  M 114.252 159.716 L 114.252 159.716 Q 116.88 159.716 119.022 158.492 L 119.022 158.492 L 119.022 158.492 Q 121.164 157.268 122.406 155.108 L 122.406 155.108 L 122.406 155.108 Q 123.648 152.948 123.648 150.284 L 123.648 150.284 L 123.648 150.284 Q 123.648 147.584 122.388 145.424 L 122.388 145.424 L 122.388 145.424 Q 121.128 143.264 118.95 142.022 L 118.95 142.022 L 118.95 142.022 Q 116.772 140.78 114.108 140.78 L 114.108 140.78 L 107.376 140.78 L 107.376 159.716 L 114.252 159.716 Z  M 136.108 162.848 L 136.108 137.648 L 139.564 137.648 L 139.564 162.848 L 136.108 162.848 Z  M 160.484 137.648 L 160.484 137.648 Q 165.2 137.648 167.774 139.88 L 167.774 139.88 L 167.774 139.88 Q 170.348 142.112 170.348 146.144 L 170.348 146.144 L 170.348 146.144 Q 170.348 150.356 167.756 152.678 L 167.756 152.678 L 167.756 152.678 Q 165.164 155 160.484 155 L 160.484 155 L 154.22 155 L 154.22 162.848 L 150.764 162.848 L 150.764 137.648 L 160.484 137.648 Z  M 160.34 151.868 L 160.34 151.868 Q 163.58 151.868 165.308 150.446 L 165.308 150.446 L 165.308 150.446 Q 167.036 149.024 167.036 146.252 L 167.036 146.252 L 167.036 146.252 Q 167.036 143.552 165.308 142.166 L 165.308 142.166 L 165.308 142.166 Q 163.58 140.78 160.34 140.78 L 160.34 140.78 L 154.22 140.816 L 154.22 151.868 L 160.34 151.868 Z  M 175.68 140.816 L 175.68 137.648 L 195.372 137.648 L 195.372 140.816 L 187.236 140.816 L 187.236 162.848 L 183.78 162.848 L 183.78 140.816 L 175.68 140.816 Z  M 225.796 162.848 L 222.052 162.848 L 219.388 156.728 L 206.104 156.728 L 203.476 162.848 L 199.84 162.848 L 211.036 137.648 L 214.636 137.648 L 225.796 162.848 Z  M 212.728 141.356 L 207.472 153.596 L 218.056 153.596 L 212.728 141.356 Z  M 233.612 159.032 L 233.612 159.032 Q 234.44 159.032 234.998 159.608 L 234.998 159.608 L 234.998 159.608 Q 235.556 160.184 235.556 161.084 L 235.556 161.084 L 235.556 161.084 Q 235.556 161.984 234.998 162.578 L 234.998 162.578 L 234.998 162.578 Q 234.44 163.172 233.612 163.172 L 233.612 163.172 L 233.612 163.172 Q 232.784 163.172 232.208 162.578 L 232.208 162.578 L 232.208 162.578 Q 231.632 161.984 231.632 161.084 L 231.632 161.084 L 231.632 161.084 Q 231.632 160.184 232.208 159.608 L 232.208 159.608 L 232.208 159.608 Q 232.784 159.032 233.612 159.032 L 233.612 159.032 Z  M 25.86 93.764 L 25.86 93.764 Q 29.532 93.764 32.502 95.402 L 32.502 95.402 L 32.502 95.402 Q 35.472 97.04 37.164 99.92 L 37.164 99.92 L 37.164 99.92 Q 38.856 102.8 38.856 106.364 L 38.856 106.364 L 38.856 106.364 Q 38.856 109.928 37.146 112.808 L 37.146 112.808 L 37.146 112.808 Q 35.436 115.688 32.448 117.326 L 32.448 117.326 L 32.448 117.326 Q 29.46 118.964 25.752 118.964 L 25.752 118.964 L 15.6 118.964 L 15.6 93.764 L 25.86 93.764 Z  M 25.932 115.832 L 25.932 115.832 Q 28.56 115.832 30.702 114.608 L 30.702 114.608 L 30.702 114.608 Q 32.844 113.384 34.086 111.224 L 34.086 111.224 L 34.086 111.224 Q 35.328 109.064 35.328 106.4 L 35.328 106.4 L 35.328 106.4 Q 35.328 103.7 34.068 101.54 L 34.068 101.54 L 34.068 101.54 Q 32.808 99.38 30.63 98.138 L 30.63 98.138 L 30.63 98.138 Q 28.452 96.896 25.788 96.896 L 25.788 96.896 L 19.056 96.896 L 19.056 115.832 L 25.932 115.832 Z  M 47.788 118.964 L 47.788 93.764 L 65.284 93.764 L 65.284 96.896 L 51.244 96.896 L 51.244 104.672 L 63.808 104.672 L 63.808 107.804 L 51.244 107.804 L 51.244 115.832 L 65.716 115.832 L 65.716 118.964 L 47.788 118.964 Z  M 93.224 113.312 L 93.224 93.764 L 96.644 93.764 L 96.644 118.964 L 93.152 118.964 L 78.752 99.452 L 78.752 118.964 L 75.296 118.964 L 75.296 93.764 L 78.788 93.764 L 93.224 113.312 Z  M 125.808 113.312 L 125.808 93.764 L 129.228 93.764 L 129.228 118.964 L 125.736 118.964 L 111.336 99.452 L 111.336 118.964 L 107.88 118.964 L 107.88 93.764 L 111.372 93.764 L 125.808 113.312 Z  M 155.908 93.764 L 159.436 93.764 L 150.004 110.324 L 150.004 118.964 L 146.548 118.964 L 146.548 110.468 L 136.972 93.764 L 140.5 93.764 L 148.276 106.616 L 155.908 93.764 Z " fill-rule="evenodd" fill="rgb(255,255,255)"/></g></svg>