<svg xmlns="http://www.w3.org/2000/svg" xmlns:xlink="http://www.w3.org/1999/xlink" viewBox="0 0 64 64" version="1.1" width="50" height="50" style="fill: rgb(0, 0, 0);">
<g id="surface1">
<path style=" fill:#ACB7D0;" d="M 17 1 L 39 1 C 42.3125 1 45 3.6875 45 7 L 45 57 C 45 60.3125 42.3125 63 39 63 L 17 63 C 13.6875 63 11 60.3125 11 57 L 11 7 C 11 3.6875 13.6875 1 17 1 Z "/>
<path style=" fill:#ACB7D0;" d="M 11 53 L 45 53 L 45 57 C 45 60.3125 42.3125 63 39 63 L 17 63 C 13.6875 63 11 60.3125 11 57 Z "/>
<path style=" fill:#C5E4FA;" d="M 11 9 L 45 9 L 45 53 L 11 53 Z "/>
<path style=" fill:#E3F2FF;" d="M 27 53 L 45.378906 34.628906 L 45 20 L 12 53 Z "/>
<path style=" fill:#E3F2FF;" d="M 11 50 L 45 16 L 45 10 L 11 44 Z "/>
<path style=" fill:#E3F2FF;" d="M 11 40 L 42 9 L 37 9 L 11 35 Z "/>
<path style=" fill:#FFF8F8;" d="M 18.5 13 L 19.738281 15.261719 L 22 16.5 L 19.738281 17.738281 L 18.5 20 L 17.261719 17.738281 L 15 16.5 L 17.261719 15.261719 Z "/>
<path style=" fill:#FFF8F8;" d="M 26.421875 26.160156 L 27.269531 27.730469 L 28.839844 28.578125 L 27.269531 29.441406 L 26.421875 31 L 25.558594 29.441406 L 24 28.578125 L 25.558594 27.730469 Z "/>
<path style=" fill:#FFF8F8;" d="M 17.648438 36.699219 L 18.230469 37.769531 L 19.300781 38.351563 L 18.230469 38.941406 L 17.648438 40 L 17.070313 38.941406 L 16 38.351563 L 17.070313 37.769531 Z "/>
<path style=" fill:#ED7899;" d="M 55.511719 29 C 56.0625 29 56.511719 29.449219 56.511719 30 L 56.511719 31.558594 C 56.5 41.390625 50 48 40.25 48 C 30.8125 48.078125 23.09375 40.496094 23 31.058594 C 23.09375 21.621094 30.8125 14.042969 40.25 14.121094 C 44.015625 14.113281 47.679688 15.328125 50.699219 17.578125 C 50.933594 17.746094 51.082031 18 51.117188 18.28125 C 51.148438 18.566406 51.058594 18.847656 50.871094 19.058594 L 47.800781 22.53125 C 47.46875 22.902344 46.914063 22.976563 46.5 22.699219 C 44.679688 21.394531 42.492188 20.695313 40.25 20.699219 C 36.464844 20.582031 32.917969 22.535156 30.992188 25.792969 C 29.066406 29.050781 29.066406 33.097656 30.992188 36.359375 C 32.917969 39.617188 36.464844 41.566406 40.25 41.449219 C 45.121094 41.449219 48.320313 39.148438 49.410156 35.011719 L 42 35.011719 C 41.449219 35.011719 41 34.5625 41 34.011719 L 41 30 C 41 29.449219 41.449219 29 42 29 Z "/>
<path style=" fill:#F9E3AE;" d="M 55.511719 29 C 56.0625 29 56.511719 29.449219 56.511719 30 L 56.511719 31.558594 C 56.5 41.390625 50 48 40.25 48 C 30.8125 48.078125 23.09375 40.496094 23 31.058594 C 23 27.300781 24.691406 24.058594 26.378906 21 C 26.449219 20.859375 31.140625 24.769531 31 25 C 29.984375 26.847656 29.523438 28.953125 29.679688 31.058594 C 29.734375 36.84375 34.464844 41.488281 40.25 41.441406 C 45.121094 41.441406 48.320313 39.140625 49.410156 35 L 42 35 C 41.449219 35 41 34.550781 41 34 L 41 30 C 41 29.449219 41.449219 29 42 29 Z "/>
<path style=" fill:#72CAAF;" d="M 55.511719 29 C 56.0625 29 56.511719 29.449219 56.511719 30 L 56.511719 31.558594 C 56.5 41.390625 50 48 40.25 48 C 33.902344 48.023438 28.046875 44.570313 25 39 C 24.371094 37.839844 26.070313 37.769531 27.5 36.921875 C 28.929688 36.070313 30.210938 34.410156 30.5 35.03125 C 32.164063 38.945313 36.015625 41.484375 40.269531 41.46875 C 45.140625 41.46875 48.339844 39.171875 49.429688 35.03125 L 42 35.03125 C 41.449219 35.03125 41 34.582031 41 34.03125 L 41 30 C 41 29.449219 41.449219 29 42 29 Z "/>
<path style=" fill:#85CBF8;" d="M 55.511719 29 C 56.0625 29 56.511719 29.449219 56.511719 30 L 56.511719 31.558594 C 56.648438 35.816406 55.152344 39.960938 52.328125 43.148438 C 50.898438 44.691406 50.53125 42.839844 49.328125 41.628906 C 48.128906 40.421875 46.238281 39.839844 47.050781 39.070313 C 48.207031 37.964844 49.023438 36.550781 49.410156 35 L 42 35 C 41.449219 35 41 34.550781 41 34 L 41 30 C 41 29.449219 41.449219 29 42 29 Z "/>
<path style=" fill:#8D6C9F;" d="M 17 44 C 16.449219 44 16 44.449219 16 45 L 16 47 C 16 47.550781 16.449219 48 17 48 C 17.550781 48 18 47.550781 18 47 L 18 45 C 18 44.449219 17.550781 44 17 44 Z "/>
<path style=" fill:#8D6C9F;" d="M 22 44 C 21.449219 44 21 44.449219 21 45 L 21 47 C 21 47.550781 21.449219 48 22 48 C 22.550781 48 23 47.550781 23 47 L 23 45 C 23 44.449219 22.550781 44 22 44 Z "/>
<path style=" fill:#8D6C9F;" d="M 27 44 C 26.449219 44 26 44.449219 26 45 L 26 47 C 26 47.550781 26.449219 48 27 48 C 27.550781 48 28 47.550781 28 47 L 28 45 C 28 44.449219 27.550781 44 27 44 Z "/>
<path style=" fill:#8D6C9F;" d="M 30 58 C 30 59.105469 29.105469 60 28 60 C 26.894531 60 26 59.105469 26 58 C 26 56.894531 26.894531 56 28 56 C 29.105469 56 30 56.894531 30 58 Z "/>
<path style=" fill:#8D6C9F;" d="M 29 6 L 33 6 C 33.550781 6 34 5.550781 34 5 C 34 4.449219 33.550781 4 33 4 L 29 4 C 28.449219 4 28 4.449219 28 5 C 28 5.550781 28.449219 6 29 6 Z "/>
<path style=" fill:#8D6C9F;" d="M 23 6 L 25 6 C 25.550781 6 26 5.550781 26 5 C 26 4.449219 25.550781 4 25 4 L 23 4 C 22.449219 4 22 4.449219 22 5 C 22 5.550781 22.449219 6 23 6 Z "/>
<path style=" fill:#8D6C9F;" d="M 55.511719 28 L 46 28 L 46 23.558594 C 46.824219 24.066406 47.894531 23.910156 48.539063 23.191406 L 51.609375 19.730469 C 51.976563 19.3125 52.15625 18.761719 52.101563 18.210938 C 52.042969 17.644531 51.75 17.125 51.289063 16.789063 C 49.691406 15.578125 47.902344 14.632813 46 14 C 40.390625 8.269531 46 14 46 14 L 46 7 C 46 3.132813 42.867188 0 39 0 L 17 0 C 13.132813 0 10 3.132813 10 7 L 10 57 C 10 60.867188 13.132813 64 17 64 L 39 64 C 42.867188 64 46 60.867188 46 57 L 46 48.171875 C 53.058594 46 57.5 39.898438 57.5 31.558594 L 57.5 30 C 57.5 28.898438 56.609375 28.003906 55.511719 28 Z M 42 36 L 48 36 C 46.75 38.910156 44.089844 40.441406 40.230469 40.441406 C 36.808594 40.550781 33.597656 38.789063 31.851563 35.84375 C 30.109375 32.898438 30.109375 29.234375 31.851563 26.285156 C 33.597656 23.339844 36.808594 21.578125 40.230469 21.691406 C 41.515625 21.6875 42.792969 21.941406 43.980469 22.441406 L 43.980469 28 L 42 28 C 40.894531 28 40 28.894531 40 30 L 40 34 C 40 35.105469 40.894531 36 42 36 Z M 40.25 47 C 34.515625 47.007813 29.199219 44 26.25 39.078125 L 30 36.261719 C 32.011719 40.0625 35.964844 42.4375 40.269531 42.429688 C 42.597656 42.511719 44.894531 41.871094 46.839844 40.589844 L 50.359375 43.589844 C 47.5 45.890625 43.917969 47.097656 40.25 47 Z M 26.25 23 L 30 25.800781 C 28.59375 28.429688 28.296875 31.511719 29.179688 34.359375 L 25.289063 37.28125 C 23.285156 32.636719 23.65625 27.308594 26.289063 22.988281 Z M 47.070313 21.890625 C 42 18.226563 34.941406 19.214844 31.070313 24.128906 L 27.371094 21.351563 C 30.472656 17.414063 35.207031 15.121094 40.21875 15.128906 C 43.777344 15.132813 47.238281 16.285156 50.089844 18.410156 Z M 17 2 L 39 2 C 41.761719 2 44 4.238281 44 7 L 44 8 L 12 8 L 12 7 C 12 4.238281 14.238281 2 17 2 Z M 39 62 L 17 62 C 14.238281 62 12 59.761719 12 57 L 12 54 L 44 54 L 44 57 C 44 59.761719 41.761719 62 39 62 Z M 44 52 L 12 52 L 12 48 C 12.550781 48 13 47.550781 13 47 L 13 45 C 13 44.449219 12.550781 44 12 44 L 12 10 L 44 10 L 44 13.53125 C 42.765625 13.269531 41.511719 13.132813 40.25 13.128906 C 30.265625 13.058594 22.105469 21.074219 22 31.058594 C 22.027344 37.445313 25.457031 43.328125 31 46.5 L 31 47 C 31.007813 47.457031 31.320313 47.847656 31.761719 47.957031 C 32.203125 48.066406 32.664063 47.859375 32.878906 47.460938 C 35.203125 48.476563 37.714844 49 40.25 49 C 41.507813 49.003906 42.761719 48.894531 44 48.671875 Z M 55.5 31.558594 C 55.617188 35.449219 54.289063 39.242188 51.769531 42.210938 L 48.308594 39.210938 C 49.300781 38.054688 50.003906 36.6875 50.371094 35.210938 C 50.449219 34.90625 50.378906 34.582031 50.183594 34.335938 C 49.984375 34.089844 49.683594 33.949219 49.371094 33.960938 L 42 33.960938 L 42 30 L 55.511719 30 Z "/>
</g>
</svg>