<?xml version="1.0" standalone="no"?>
<!DOCTYPE svg PUBLIC "-//W3C//DTD SVG 20010904//EN"
 "http://www.w3.org/TR/2001/REC-SVG-20010904/DTD/svg10.dtd">
<svg version="1.0" xmlns="http://www.w3.org/2000/svg"
 width="700.000000pt" height="700.000000pt" viewBox="0 0 700.000000 700.000000"
 preserveAspectRatio="xMidYMid meet">
<metadata>
Created by potrace 1.11, written by Peter Selinger 2001-2013
</metadata>
<g transform="translate(0.000000,700.000000) scale(0.100000,-0.100000)"
fill="#000000" stroke="none">
<path d="M1740 6990 c-19 -4 -50 -10 -68 -14 -59 -12 -163 -58 -235 -106 -130
-84 -251 -239 -298 -378 -47 -140 -45 -28 -44 -3007 1 -1546 5 -2828 9 -2850
31 -161 103 -294 220 -410 85 -84 156 -131 253 -170 136 -55 90 -54 1513 -52
l1315 2 90 32 c168 58 280 137 382 268 43 55 96 159 115 225 9 30 20 66 24 80
4 14 10 272 13 574 l6 548 75 27 c94 34 189 75 235 101 19 11 51 29 71 40 171
97 345 248 473 410 60 76 79 102 116 161 39 62 128 251 158 334 54 152 76 244
112 475 3 19 8 126 11 236 8 234 0 281 -52 343 -68 79 -34 74 -634 77 -294 1
-543 3 -552 3 -17 1 -18 19 -18 241 0 132 2 240 4 240 2 0 20 -7 39 -15 79
-33 161 -12 232 60 28 27 80 83 115 123 36 41 74 84 85 96 99 110 143 163 162
194 45 73 39 169 -13 239 -63 84 -387 272 -566 330 l-57 18 -3 455 c-4 426 -5
459 -25 520 -90 285 -299 481 -583 546 -45 10 -2633 14 -2680 4z m3497 -3930
c22 0 -52 -127 -127 -216 -30 -36 -150 -131 -170 -136 -13 -3 -15 24 -16 172
0 133 3 176 12 180 10 4 214 4 301 0z"/>
</g>
</svg>
