<svg height="511pt" viewBox="1 -33 511.99998 511" width="511pt" xmlns="http://www.w3.org/2000/svg"><path d="m426.667969 70.769531h-341.335938l-32.445312 26.714844 117.78125 33.523437v135.332032l85.332031 178.894531 85.332031-178.894531v-135.332032l117.78125-33.523437zm0 0" fill="#0095b3"/><path d="m256 445.234375-256-314.226563 52.886719-33.523437 117.78125 33.523437zm0 0" fill="#00a5c6"/><path d="m512 131.007812-256 314.226563 85.332031-314.226563 117.78125-33.523437zm0 0" fill="#00a5c6"/><g fill="#3a484a"><path d="m357.175781 233.125c-4.265625 0-7.726562-3.457031-7.726562-7.726562v-18.308594c0-4.269532 3.460937-7.726563 7.726562-7.726563 4.269531 0 7.726563 3.457031 7.726563 7.726563v18.308594c0 4.269531-3.457032 7.726562-7.726563 7.726562zm0 0"/><path d="m154.824219 233.125c-4.269531 0-7.726563-3.457031-7.726563-7.726562v-18.308594c0-4.269532 3.457032-7.726563 7.726563-7.726563 4.265625 0 7.726562 3.457031 7.726562 7.726563v18.308594c0 4.269531-3.460937 7.726562-7.726562 7.726562zm0 0"/><path d="m256 242.902344c-11.960938 0-23.183594-4.992188-30.789062-13.691406-2.808594-3.214844-2.480469-8.09375.730468-10.902344 3.214844-2.808594 8.09375-2.480469 10.902344.730468 4.671875 5.34375 11.652344 8.40625 19.15625 8.40625s14.484375-3.0625 19.152344-8.40625c2.8125-3.210937 7.691406-3.539062 10.902344-.730468 3.214843 2.808594 3.542968 7.6875.734374 10.902344-7.605468 8.699218-18.828124 13.691406-30.789062 13.691406zm0 0"/></g><path d="m85.332031.5h170.667969v70.273438l-85.332031 60.234374-85.335938-60.234374zm0 0" fill="#00a5c6"/><path d="m426.667969.5h-170.667969v70.273438l85.332031 60.234374 85.335938-60.234374zm0 0" fill="#00a5c6"/><path d="m341.332031 131.007812h-170.664062l85.332031-130.507812zm0 0" fill="#49c3e0"/><path d="m170.667969 131.007812h-170.667969l85.332031-130.507812zm0 0" fill="#49c3e0"/><path d="m341.332031 131.007812h170.667969l-85.332031-130.507812zm0 0" fill="#49c3e0"/></svg>